<svg xmlns="http://www.w3.org/2000/svg" viewBox="0 0 512 512">
  <defs>
    <linearGradient id="bg" x1="0%" y1="0%" x2="100%" y2="100%">
      <stop offset="0%" style="stop-color:#4F46E5"/>
      <stop offset="100%" style="stop-color:#7C3AED"/>
    </linearGradient>
    <linearGradient id="mic" x1="0%" y1="0%" x2="0%" y2="100%">
      <stop offset="0%" style="stop-color:#F97316"/>
      <stop offset="100%" style="stop-color:#EA580C"/>
    </linearGradient>
  </defs>

  <!-- background -->
  <rect width="512" height="512" rx="112" fill="url(#bg)"/>

  <!-- everything shifted up 14px to center vertically -->

  <!-- notepad -->
  <rect x="68" y="38" width="300" height="380" rx="28" fill="white" opacity="0.93"/>

  <!-- transcript lines -->
  <rect x="112" y="116" width="212" height="20" rx="10" fill="#A5B4FC"/>
  <rect x="112" y="166" width="160" height="20" rx="10" fill="#C7D2FE"/>
  <rect x="112" y="216" width="190" height="20" rx="10" fill="#C7D2FE"/>
  <rect x="112" y="266" width="140" height="20" rx="10" fill="#A5B4FC"/>
  <rect x="112" y="316" width="175" height="20" rx="10" fill="#C7D2FE"/>

  <!-- mic -->
  <rect x="280" y="196" width="140" height="200" rx="70" fill="url(#mic)"/>
  <rect x="308" y="220" width="18" height="72" rx="9" fill="white" opacity="0.25"/>

  <!-- mic stand -->
  <path d="M280 402 Q280 448 350 448 Q420 448 420 402" fill="none" stroke="#EA580C" stroke-width="12" stroke-linecap="round"/>
  <line x1="350" y1="448" x2="350" y2="474" stroke="#EA580C" stroke-width="12" stroke-linecap="round"/>

  <!-- recording dot -->
  <circle cx="116" cy="74" r="22" fill="#EF4444"/>
</svg>
